<svg width="32" height="32" viewBox="0 0 32 32" fill="none" xmlns="http://www.w3.org/2000/svg">
<path d="M26.5 22H27.5C27.775 22 28 21.775 28 21.5V6.5C28 6.225 27.775 6 27.5 6H26.5C26.225 6 26 6.225 26 6.5V21.5C26 21.775 26.225 22 26.5 22ZM20.5 22H21.5C21.775 22 22 21.775 22 21.5V12.5C22 12.225 21.775 12 21.5 12H20.5C20.225 12 20 12.225 20 12.5V21.5C20 21.775 20.225 22 20.5 22ZM8.5 22H9.5C9.775 22 10 21.775 10 21.5V16.5C10 16.225 9.775 16 9.5 16H8.5C8.225 16 8 16.225 8 16.5V21.5C8 21.775 8.225 22 8.5 22ZM14.5 22H15.5C15.775 22 16 21.775 16 21.5V8.5C16 8.225 15.775 8 15.5 8H14.5C14.225 8 14 8.225 14 8.5V21.5C14 21.775 14.225 22 14.5 22ZM31.5 26H2V4.5C2 4.22375 1.77625 4 1.5 4H0.5C0.22375 4 0 4.22375 0 4.5V27C0 27.5525 0.4475 28 1 28H31.5C31.7763 28 32 27.7763 32 27.5V26.5C32 26.2237 31.7763 26 31.5 26Z" fill="white"/>
</svg>
