<svg width="30" height="30" viewBox="0 0 30 30" fill="none" xmlns="http://www.w3.org/2000/svg">
<g clip-path="url(#clip0_216_9)">
<path d="M15 0.46875C6.97459 0.46875 0.46875 6.97459 0.46875 15C0.46875 23.0254 6.97459 29.5312 15 29.5312C23.0254 29.5312 29.5312 23.0254 29.5312 15C29.5312 6.97459 23.0254 0.46875 15 0.46875ZM15 27.6562C8.04703 27.6562 2.34375 22.028 2.34375 15C2.34375 8.04709 7.97197 2.34375 15 2.34375C21.953 2.34375 27.6562 7.97197 27.6562 15C27.6562 21.9529 22.028 27.6562 15 27.6562ZM23.2986 11.5453L12.7236 22.0354C12.4479 22.3089 12.0028 22.3071 11.7293 22.0314L6.69738 16.9588C6.42393 16.6832 6.42568 16.238 6.70137 15.9645L7.20059 15.4693C7.47627 15.1959 7.92146 15.1976 8.19492 15.4733L12.2365 19.5475L21.8131 10.0477C22.0888 9.77426 22.534 9.77602 22.8074 10.0517L23.3026 10.5509C23.5761 10.8266 23.5743 11.2718 23.2986 11.5453Z" fill="white"/>
</g>
<defs>
<clipPath id="clip0_216_9">
<rect width="30" height="30" fill="white"/>
</clipPath>
</defs>
</svg>
