<svg width="51" height="39" viewBox="0 0 51 39" fill="none" xmlns="http://www.w3.org/2000/svg">
<path d="M20.3201 35.8908L20.3201 35.8908L47.9258 8.50661C47.9258 8.5066 47.9258 8.50659 47.9258 8.50658C49.2335 7.20938 49.2422 5.0975 47.9448 3.78964C47.9447 3.7896 47.9447 3.78955 47.9446 3.78951L46.6521 2.48644L45.5872 3.54278L46.6521 2.48643C45.3547 1.17848 43.2428 1.17031 41.9351 2.46743L41.9351 2.46746L18.0006 26.21L8.50661 16.6394C7.20923 15.3314 5.09733 15.3233 3.78964 16.6204C3.78963 16.6204 3.78963 16.6204 3.78963 16.6204L2.48644 17.913L2.48643 17.913C1.17848 19.2104 1.1703 21.3223 2.46743 22.63L2.46746 22.6301L15.6031 35.8718C15.6031 35.8718 15.6031 35.8718 15.6031 35.8718C16.9005 37.1798 19.0124 37.1879 20.3201 35.8908Z" fill="#0ED984" stroke="white" stroke-width="3"/>
</svg>
