<svg width="100" height="100" viewBox="0 0 100 100" fill="none" xmlns="http://www.w3.org/2000/svg">
<path d="M58.6733 51.6667H45.4168V60.8329H58.6733V51.6667Z" fill="white"/>
<path d="M42.0838 35.0005H32.9177V48.333H42.0838V35.0005Z" fill="white"/>
<path d="M42.0838 64.166H32.9177V77.4985H42.0838V64.166Z" fill="white"/>
<path d="M92.5947 0H7.40831C5.4435 0 3.55917 0.780516 2.16984 2.16984C0.780516 3.55917 0 5.4435 0 7.40831L0 92.5917C0 93.5646 0.191622 94.5279 0.563924 95.4267C0.936226 96.3255 1.48192 97.1422 2.16984 97.8302C2.85777 98.5181 3.67445 99.0638 4.57327 99.4361C5.47209 99.8084 6.43544 100 7.40831 100H92.5947C93.5675 100 94.5307 99.8084 95.4293 99.436C96.3279 99.0637 97.1444 98.5179 97.8321 97.83C98.5198 97.142 99.0652 96.3253 99.4372 95.4265C99.8091 94.5277 100 93.5644 100 92.5917V7.40831C100 5.44403 99.2199 3.56016 97.8312 2.17092C96.4426 0.781678 94.559 0.000806354 92.5947 0V0ZM74.5849 33.3343C74.5841 33.7761 74.4082 34.1995 74.0959 34.5119C73.7835 34.8243 73.3601 35.0001 72.9183 35.0009H45.4169V48.3334H60.34C60.782 48.3334 61.2059 48.509 61.5184 48.8216C61.831 49.1341 62.0066 49.558 62.0066 50V62.4992C62.0066 62.9412 61.831 63.3651 61.5184 63.6777C61.2059 63.9902 60.782 64.1658 60.34 64.1658H45.4169V79.1679C45.4169 79.6099 45.2414 80.0338 44.9288 80.3464C44.6163 80.6589 44.1924 80.8345 43.7504 80.8345H31.2511C30.8091 80.8345 30.3852 80.6589 30.0727 80.3464C29.7602 80.0338 29.5846 79.6099 29.5846 79.1679V62.4992C29.5846 62.0572 29.7602 61.6333 30.0727 61.3208C30.3852 61.0083 30.8091 60.8327 31.2511 60.8327H42.0838V51.6666H31.2511C30.8091 51.6666 30.3852 51.491 30.0727 51.1784C29.7602 50.8659 29.5846 50.442 29.5846 50V33.3343C29.5846 32.8923 29.7602 32.4684 30.0727 32.1559C30.3852 31.8434 30.8091 31.6678 31.2511 31.6678H42.0838V20.8321C42.083 20.6127 42.1255 20.3953 42.2089 20.1924C42.2923 19.9895 42.415 19.8051 42.5698 19.6497C42.7246 19.4943 42.9086 19.371 43.1112 19.2869C43.3138 19.2027 43.531 19.1594 43.7504 19.1594H72.9183C73.3601 19.1602 73.7835 19.3361 74.0959 19.6484C74.4082 19.9608 74.5841 20.3842 74.5849 20.826V33.3343Z" fill="white"/>
<path d="M71.2516 22.4985H45.4168V31.6646H71.2516V22.4985Z" fill="white"/>
</svg>
