<svg width="25" height="25" viewBox="0 0 25 25" fill="none" xmlns="http://www.w3.org/2000/svg">
<g clip-path="url(#clip0_208_208)">
<path d="M24.8291 22.8955L18.9014 16.9678C18.7891 16.8555 18.6426 16.7969 18.4863 16.7969H17.8418C19.3799 15.0146 20.3125 12.6953 20.3125 10.1562C20.3125 4.5459 15.7666 0 10.1562 0C4.5459 0 0 4.5459 0 10.1562C0 15.7666 4.5459 20.3125 10.1562 20.3125C12.6953 20.3125 15.0146 19.3799 16.7969 17.8418V18.4863C16.7969 18.6426 16.8604 18.7891 16.9678 18.9014L22.8955 24.8291C23.125 25.0586 23.4961 25.0586 23.7256 24.8291L24.8291 23.7256C25.0586 23.4961 25.0586 23.125 24.8291 22.8955ZM10.1562 17.9688C5.83984 17.9688 2.34375 14.4727 2.34375 10.1562C2.34375 5.83984 5.83984 2.34375 10.1562 2.34375C14.4727 2.34375 17.9688 5.83984 17.9688 10.1562C17.9688 14.4727 14.4727 17.9688 10.1562 17.9688Z" fill="#AECBDE"/>
</g>
<defs>
<clipPath id="clip0_208_208">
<rect width="25" height="25" fill="white"/>
</clipPath>
</defs>
</svg>
