<svg width="4" height="15" viewBox="0 0 4 15" fill="none" xmlns="http://www.w3.org/2000/svg">
<path d="M1.57895 5.92105C2.4523 5.92105 3.15789 6.62665 3.15789 7.5C3.15789 8.37336 2.4523 9.07895 1.57895 9.07895C0.705592 9.07895 0 8.37336 0 7.5C0 6.62665 0.705592 5.92105 1.57895 5.92105ZM0 1.57895C0 2.4523 0.705592 3.15789 1.57895 3.15789C2.4523 3.15789 3.15789 2.4523 3.15789 1.57895C3.15789 0.705592 2.4523 0 1.57895 0C0.705592 0 0 0.705592 0 1.57895ZM0 13.4211C0 14.2944 0.705592 15 1.57895 15C2.4523 15 3.15789 14.2944 3.15789 13.4211C3.15789 12.5477 2.4523 11.8421 1.57895 11.8421C0.705592 11.8421 0 12.5477 0 13.4211Z" fill="#9CAEC1"/>
</svg>
