<svg width="59" height="67" viewBox="0 0 59 67" fill="none" xmlns="http://www.w3.org/2000/svg">
<path d="M38.9821 56.5312H41.0893C41.3687 56.5312 41.6367 56.421 41.8343 56.2246C42.0319 56.0283 42.1429 55.762 42.1429 55.4844V19.8906C42.1429 19.613 42.0319 19.3467 41.8343 19.1504C41.6367 18.954 41.3687 18.8438 41.0893 18.8438H38.9821C38.7027 18.8438 38.4347 18.954 38.2372 19.1504C38.0396 19.3467 37.9286 19.613 37.9286 19.8906V55.4844C37.9286 55.762 38.0396 56.0283 38.2372 56.2246C38.4347 56.421 38.7027 56.5312 38.9821 56.5312ZM17.9107 56.5312H20.0179C20.2973 56.5312 20.5653 56.421 20.7628 56.2246C20.9604 56.0283 21.0714 55.762 21.0714 55.4844V19.8906C21.0714 19.613 20.9604 19.3467 20.7628 19.1504C20.5653 18.954 20.2973 18.8438 20.0179 18.8438H17.9107C17.6313 18.8438 17.3633 18.954 17.1657 19.1504C16.9681 19.3467 16.8571 19.613 16.8571 19.8906V55.4844C16.8571 55.762 16.9681 56.0283 17.1657 56.2246C17.3633 56.421 17.6313 56.5312 17.9107 56.5312ZM57.9464 8.375H44.25L39.825 2.5125C39.2362 1.73239 38.4727 1.09922 37.5949 0.663129C36.7171 0.227036 35.7492 0 34.7679 0L24.2321 0C23.2508 0 22.2829 0.227036 21.4051 0.663129C20.5274 1.09922 19.7638 1.73239 19.175 2.5125L14.75 8.375H1.05357C0.774147 8.375 0.506167 8.4853 0.308584 8.68162C0.111001 8.87795 0 9.14423 0 9.42188L0 11.5156C0 11.7933 0.111001 12.0596 0.308584 12.2559C0.506167 12.4522 0.774147 12.5625 1.05357 12.5625H4.21429V60.7188C4.21429 62.3846 4.88029 63.9823 6.06579 65.1603C7.25129 66.3382 8.85917 67 10.5357 67H48.4643C50.1408 67 51.7487 66.3382 52.9342 65.1603C54.1197 63.9823 54.7857 62.3846 54.7857 60.7188V12.5625H57.9464C58.2259 12.5625 58.4938 12.4522 58.6914 12.2559C58.889 12.0596 59 11.7933 59 11.5156V9.42188C59 9.14423 58.889 8.87795 58.6914 8.68162C58.4938 8.4853 58.2259 8.375 57.9464 8.375ZM22.5464 5.025C22.7434 4.76571 22.9981 4.5552 23.2905 4.40991C23.5829 4.26463 23.9052 4.18851 24.2321 4.1875H34.7679C35.0948 4.18851 35.4171 4.26463 35.7095 4.40991C36.0019 4.5552 36.2566 4.76571 36.4536 5.025L38.9821 8.375H20.0179L22.5464 5.025ZM50.5714 60.7188C50.5714 61.274 50.3494 61.8066 49.9543 62.1993C49.5591 62.5919 49.0231 62.8125 48.4643 62.8125H10.5357C9.97687 62.8125 9.44091 62.5919 9.04574 62.1993C8.65057 61.8066 8.42857 61.274 8.42857 60.7188V12.5625H50.5714V60.7188ZM28.4464 56.5312H30.5536C30.833 56.5312 31.101 56.421 31.2986 56.2246C31.4961 56.0283 31.6071 55.762 31.6071 55.4844V19.8906C31.6071 19.613 31.4961 19.3467 31.2986 19.1504C31.101 18.954 30.833 18.8438 30.5536 18.8438H28.4464C28.167 18.8438 27.899 18.954 27.7014 19.1504C27.5039 19.3467 27.3929 19.613 27.3929 19.8906V55.4844C27.3929 55.762 27.5039 56.0283 27.7014 56.2246C27.899 56.421 28.167 56.5312 28.4464 56.5312Z" fill="#4A6583"/>
</svg>
