<svg width="34" height="27" viewBox="0 0 34 27" fill="none" xmlns="http://www.w3.org/2000/svg">
<path d="M28.6132 10.357L28.4803 10.1513C28.2625 10.1671 28.05 10.1671 27.8322 10.1513L27.6994 10.3622C27.3913 10.8474 26.791 11.0689 26.2385 10.8948C25.5053 10.6681 25.0166 10.4308 24.4163 9.94035C23.9382 9.55012 23.8213 8.86985 24.1294 8.33723L24.2622 8.11047C24.14 7.93117 24.0338 7.7466 23.9382 7.55149H23.4547C22.8385 7.55149 22.3178 7.11906 22.201 6.51789C22.0628 5.79543 22.0575 5.24172 22.2063 4.48762C22.3178 3.89172 22.8491 3.4593 23.46 3.4593H23.9382C24.0338 3.26418 24.14 3.07961 24.2622 2.90031L24.1241 2.66301C23.816 2.13567 23.9328 1.46594 24.4003 1.06516C24.9635 0.585275 25.4469 0.311057 26.18 0.0632052C26.7538 -0.131912 27.386 0.100119 27.6941 0.62219L27.8322 0.854221C28.05 0.8384 28.2625 0.8384 28.4803 0.854221L28.6185 0.62219C28.9266 0.100119 29.5588 -0.131912 30.1378 0.0684786C30.8444 0.305783 31.3225 0.574729 31.9175 1.07571C32.385 1.47121 32.4966 2.14094 32.1885 2.66828L32.0503 2.90031C32.1725 3.07961 32.2788 3.26418 32.3744 3.4593H32.6453C33.2616 3.4593 33.7822 3.89172 33.8991 4.49289C34.0372 5.21535 34.0425 5.76906 33.8938 6.52317C33.7822 7.11906 33.251 7.55149 32.64 7.55149H32.3744C32.2788 7.7466 32.1725 7.93117 32.0503 8.11047L32.1832 8.33723C32.4966 8.87512 32.3691 9.55539 31.891 9.94563C31.3225 10.4097 30.8338 10.6523 30.0847 10.8896C29.5269 11.0636 28.9213 10.8474 28.6132 10.357ZM29.2613 8.53762L29.8244 9.50266C30.1803 9.355 30.5097 9.16516 30.8178 8.93313L30.2547 7.96809L30.5947 7.57258C30.8497 7.27199 31.0516 6.93449 31.1791 6.56535L31.3544 6.07492H32.4753C32.5232 5.70051 32.5232 5.31555 32.4753 4.94113H31.3544L31.1791 4.45071C31.0463 4.08156 30.8497 3.74406 30.5947 3.44348L30.2547 3.04797L30.8125 2.07766C30.5097 1.84563 30.175 1.65578 29.8191 1.50813L29.256 2.47317L28.7407 2.37824C28.3528 2.30442 27.9544 2.30442 27.5666 2.37824L27.0513 2.47317L26.4882 1.50813C26.1375 1.65051 25.8028 1.84563 25.5 2.07766L26.0632 3.0427L25.7232 3.43821C25.4682 3.73879 25.2663 4.07629 25.1388 4.44543L24.9635 4.93586H23.8425C23.7947 5.31028 23.7947 5.69524 23.8425 6.06965H24.9635L25.1388 6.56008C25.2716 6.92922 25.4682 7.26672 25.7232 7.56731L26.0632 7.96281L25.5 8.93313C25.8028 9.16516 26.1375 9.355 26.4935 9.50266L27.0566 8.53762L27.5719 8.63254C27.9597 8.70637 28.3582 8.70637 28.746 8.63254L29.2613 8.53762ZM7.7191 23.9624V22.296C7.03379 22.006 6.38566 21.6316 5.78535 21.1833L4.32441 22.0218C3.80379 22.3171 3.15035 22.2169 2.7466 21.7792C1.46097 20.3923 0.701287 19.1689 0.0584747 17.1333C-0.12215 16.5691 0.116912 15.9573 0.632225 15.6568L2.08254 14.8183C1.99222 14.08 1.99222 13.3364 2.08254 12.5982L0.632225 11.765C0.116912 11.4697 -0.12215 10.8527 0.0584747 10.2884C0.701287 8.2634 1.45035 7.03996 2.7466 5.6425C3.15035 5.20481 3.8091 5.10461 4.32441 5.39992L5.78004 6.2384C6.38035 5.79016 7.02847 5.42102 7.71379 5.12571V3.4593C7.71379 2.8634 8.12816 2.35188 8.71254 2.22531C10.556 1.81399 12.0063 1.76653 14.1153 2.22531C14.6997 2.35188 15.1194 2.86867 15.1194 3.4593V5.12571C15.8047 5.41574 16.4528 5.79016 17.0532 6.23313L18.5088 5.39992C19.0294 5.10461 19.6882 5.20481 20.0919 5.6425C21.521 7.20344 22.2966 8.59035 22.8597 10.3095C23.0403 10.8632 22.8172 11.4644 22.3178 11.7702L20.9897 12.6034C21.08 13.3417 21.08 14.0853 20.9897 14.8236L22.4825 15.7464C22.9394 16.0312 23.1732 16.5691 23.0563 17.0911C22.6897 18.7417 21.3032 20.4978 20.0866 21.795C19.6828 22.2275 19.0294 22.3224 18.5141 22.0271L17.0532 21.1886C16.4528 21.6368 15.8047 22.006 15.1194 22.3013V23.9677C15.1194 24.5583 14.705 25.0751 14.1207 25.2017C12.1285 25.6394 10.6728 25.6341 8.70722 25.2017C8.13347 25.0698 7.7191 24.553 7.7191 23.9624ZM9.4191 23.6355C10.7366 23.8991 12.1019 23.8991 13.4194 23.6355V21.12L13.9878 20.9197C14.8803 20.6085 15.7038 20.1339 16.4263 19.5222L16.8832 19.132L19.0825 20.3923C19.975 19.3851 20.8888 18.2144 21.3191 16.954L19.1197 15.6937L19.2313 15.1083C19.4013 14.1802 19.4013 13.2363 19.2313 12.3081L19.1197 11.7228L21.3191 10.4624C20.8888 9.20207 19.975 8.0261 19.0825 7.02414L16.8832 8.28449L16.4263 7.89426C15.7038 7.27727 14.8857 6.80793 13.9878 6.4968L13.4194 6.29641V3.78625C12.1019 3.52258 10.7366 3.52258 9.4191 3.78625V6.30168L8.85066 6.50207C7.95816 6.81321 7.13472 7.28781 6.41222 7.89953L5.95535 8.28977L3.75597 7.02942C2.86646 8.03317 2.18579 9.2017 1.75316 10.4677L3.95254 11.728L3.84097 12.3134C3.67097 13.2415 3.67097 14.1855 3.84097 15.1136L3.95254 15.6989L1.75316 16.9593C2.18347 18.2197 2.86347 19.3956 3.75597 20.3976L5.95535 19.1372L6.41222 19.5275C7.13472 20.1445 7.95285 20.6138 8.85066 20.9249L9.4191 21.1253V23.6355ZM11.4591 18.0825C9.03129 18.0825 7.05504 16.1208 7.05504 13.7109C7.05504 11.3009 9.03129 9.33918 11.4591 9.33918C13.8869 9.33918 15.8632 11.3009 15.8632 13.7109C15.8632 16.1208 13.8869 18.0825 11.4591 18.0825ZM11.4591 11.0267C9.9716 11.0267 8.75504 12.229 8.75504 13.7109C8.75504 15.1927 9.96629 16.395 11.4591 16.395C12.9466 16.395 14.1632 15.1927 14.1632 13.7109C14.1632 12.229 12.9519 11.0267 11.4591 11.0267ZM28.6132 26.4093L28.4803 26.2036C28.2625 26.2195 28.05 26.2195 27.8322 26.2036L27.6994 26.4146C27.3913 26.8997 26.791 27.1212 26.2385 26.9472C25.5053 26.7204 25.0166 26.4831 24.4163 25.9927C23.9382 25.6025 23.8213 24.9222 24.1294 24.3896L24.2622 24.1628C24.14 23.9835 24.0338 23.7989 23.9382 23.6038H23.4547C22.8385 23.6038 22.3178 23.1714 22.201 22.5702C22.0628 21.8478 22.0575 21.2941 22.2063 20.54C22.3178 19.9441 22.8491 19.5116 23.46 19.5116H23.9382C24.0338 19.3165 24.14 19.132 24.2622 18.9527L24.1241 18.7154C23.816 18.188 23.9328 17.5183 24.4003 17.1175C24.9635 16.6376 25.4469 16.3634 26.18 16.1155C26.7538 15.9204 27.386 16.1525 27.6941 16.6745L27.8322 16.9066C28.05 16.8907 28.2625 16.8907 28.4803 16.9066L28.6185 16.6745C28.9266 16.1525 29.5588 15.9204 30.1378 16.1208C30.8444 16.3581 31.3225 16.6271 31.9175 17.128C32.385 17.5236 32.4966 18.1933 32.1885 18.7206L32.0503 18.9527C32.1725 19.132 32.2788 19.3165 32.3744 19.5116H32.6453C33.2616 19.5116 33.7822 19.9441 33.8991 20.5452C34.0372 21.2677 34.0425 21.8214 33.8938 22.5755C33.7822 23.1714 33.251 23.6038 32.64 23.6038H32.3744C32.2788 23.7989 32.1725 23.9835 32.0503 24.1628L32.1832 24.3896C32.4966 24.9275 32.3691 25.6077 31.891 25.998C31.3225 26.462 30.8338 26.7046 30.0847 26.9419C29.5269 27.1107 28.9213 26.8945 28.6132 26.4093ZM29.2613 24.5847L29.8244 25.5497C30.1803 25.4021 30.5097 25.2122 30.8178 24.9802L30.2547 24.0152L30.5947 23.6196C30.8497 23.3191 31.0516 22.9816 31.1791 22.6124L31.3544 22.122H32.4753C32.5232 21.7476 32.5232 21.3626 32.4753 20.9882H31.3544L31.1791 20.4978C31.0463 20.1286 30.8497 19.7911 30.5947 19.4905L30.2547 19.095L30.8178 18.13C30.515 17.898 30.1803 17.7081 29.8244 17.5605L29.2613 18.5255L28.746 18.4306C28.3582 18.3568 27.9597 18.3568 27.5719 18.4306L27.0566 18.5255L26.4935 17.5605C26.1375 17.7081 25.8082 17.898 25.5 18.13L26.0632 19.095L25.7232 19.4905C25.4682 19.7911 25.2663 20.1286 25.1388 20.4978L24.9635 20.9882H23.8425C23.7947 21.3626 23.7947 21.7476 23.8425 22.122H24.9635L25.1388 22.6124C25.2716 22.9816 25.4682 23.3191 25.7232 23.6196L26.0632 24.0152L25.5 24.9802C25.8028 25.2122 26.1375 25.4021 26.4935 25.5497L27.0566 24.5847L27.5719 24.6796C27.9597 24.7534 28.3582 24.7534 28.746 24.6796L29.2613 24.5847ZM29.75 21.5155C29.75 20.5821 28.9903 19.828 28.05 19.828C27.1097 19.828 26.35 20.5821 26.35 21.5155C26.35 22.4489 27.1097 23.203 28.05 23.203C28.9903 23.203 29.75 22.4489 29.75 21.5155ZM29.75 5.46848C29.75 4.53508 28.9903 3.78098 28.05 3.78098C27.1097 3.78098 26.35 4.53508 26.35 5.46848C26.35 6.40188 27.1097 7.15598 28.05 7.15598C28.9903 7.15598 29.75 6.3966 29.75 5.46848Z" fill="white"/>
</svg>
